<?xml version="1.0" encoding="UTF-8"?>
<svg width="240px" height="245px" viewBox="0 0 240 245" version="1.1" xmlns="http://www.w3.org/2000/svg" xmlns:xlink="http://www.w3.org/1999/xlink">
    <title>is awesome!</title>
    <defs>
        <circle id="path-1" cx="120" cy="120" r="120"></circle>
        <path d="M-3.19744231e-14,160 L-3.19744231e-14,-1.42108547e-14 L264,-1.42108547e-14 L264,160 L252,160 C252,226.27417 198.27417,280 132,280 C65.72583,280 12,226.27417 12,160 L12,160 L-3.19744231e-14,160 Z" id="path-3"></path>
        <path d="M100,0 C130.927946,-5.68137151e-15 156,25.072054 156,56 L156.000809,62.1660527 C161.675838,63.1185422 166,68.05429 166,74 L166,88 C166,94.0524166 161.519235,99.0582945 155.693975,99.8813638 C153.627673,119.686433 141.238043,136.42145 124.001396,144.610287 L124,163 L128,163 C167.764502,163 200,195.235498 200,235 L200,244 L0,244 L0,235 C-4.86974701e-15,195.235498 32.235498,163 72,163 L76,163 L75.9999836,144.610943 C58.7623143,136.422213 46.3717748,119.686398 44.3050264,99.8801617 C38.4802515,99.0577208 34,94.0520698 34,88 L34,74 C34,68.053942 38.3246685,63.1179645 44.0001873,62.1658855 L44,56 C44,25.072054 69.072054,5.68137151e-15 100,0 Z" id="path-5"></path>
        <path d="M156.001177,13.0710173 C174.10124,15.0965377 188,20.6637035 188,35.0769231 L187.994775,34.6445513 C213.853089,45.5674185 232,71.1642324 232,100.999485 L232,110 L32,110 L32,100.999485 C32,71.1638494 50.1473773,45.5667611 76.0062213,34.6441305 C76.2809798,20.5514284 90.0819496,15.075891 107.999825,13.0709052 L108,32 C108,45.254834 118.745166,56 132,56 C145.254834,56 156,45.254834 156,32 L156,32 Z" id="path-7"></path>
        <path d="M35.117844,15.1280772 C36.1757121,24.6198025 44.2259873,32 54,32 C63.8042055,32 71.8740075,24.574136 72.8917593,15.0400546 C72.9736685,14.272746 72.1167429,13 71.042767,13 C56.1487536,13 44.7379213,13 37.0868244,13 C36.0066168,13 35.0120058,14.1784435 35.117844,15.1280772 Z" id="path-9"></path>
        <rect id="path-11" x="0" y="0" width="264" height="280"></rect>
        <path d="M1,64 C1.34685629,65.488448 2.67275588,65.2226722 3,64 C2.53726005,62.445722 6.29594493,35.2480719 16,28 C19.618222,25.4833872 39.0082164,23.2319099 58.3126144,23.245568 C77.4086061,23.2590787 96.4208396,25.5105561 100,28 C109.704055,35.2480719 113.46274,62.445722 113,64 C113.327244,65.2226722 114.653144,65.488448 115,64 C115.719178,53.7019177 115,0.274362825 58,1 C1,1.72563718 0.280821545,53.7019177 1,64 Z" id="path-13"></path>
    </defs>
    <g id="Avatar" stroke="none" stroke-width="1" fill="none" fill-rule="evenodd">
        <g id="is-awesome!" transform="translate(-12.000000, -35.000000)">
            <g id="Circle" transform="translate(12.000000, 40.000000)">
                <mask id="mask-2" fill="white">
                    <use xlink:href="#path-1"></use>
                </mask>
                <use id="Circle-Background" fill="#E6E6E6" xlink:href="#path-1"></use>
                <g id="Group" mask="url(#mask-2)" fill="#25557C">
                    <g id="ðŸ–-Circle-Color">
                        <rect id="ðŸ–Color" x="0" y="0" width="240" height="240"></rect>
                    </g>
                </g>
            </g>
            <mask id="mask-4" fill="white">
                <use xlink:href="#path-3"></use>
            </mask>
            <g id="Mask"></g>
            <g id="Avataaar" mask="url(#mask-4)">
                <g id="Body" transform="translate(32.000000, 36.000000)">
                    <mask id="mask-6" fill="white">
                        <use xlink:href="#path-5"></use>
                    </mask>
                    <use fill="#D0C6AC" xlink:href="#path-5"></use>
                    <g id="Group" mask="url(#mask-6)">
                        <g transform="translate(-32.000000, 0.000000)" id="ðŸŽ¨-Skin">
                            <rect id="Color" fill="#EDB98A" x="0" y="0" width="264" height="244"></rect>
                        </g>
                    </g>
                    <path d="M44,94 C44,124.927946 69.072054,150 100,150 C130.927946,150 156,124.927946 156,94 L156,94 L156,102 C156,132.927946 130.927946,158 100,158 C69.072054,158 44,132.927946 44,102 Z" id="Neck-Shadow" fill-opacity="0.100000001" fill="#000000" mask="url(#mask-6)"></path>
                </g>
                <g id="ðŸ‘”-Clothes" transform="translate(0.000000, 170.000000)">
                    <mask id="mask-8" fill="white">
                        <use xlink:href="#path-7"></use>
                    </mask>
                    <use id="Hoodie" fill="#B7C1DB" xlink:href="#path-7"></use>
                    <g id="Group" mask="url(#mask-8)" fill="#929598">
                        <g id="â†³-Color-Fabric">
                            <rect id="ðŸ–Color" x="0" y="0" width="264" height="110"></rect>
                        </g>
                    </g>
                    <path d="M101.999618,61.7388852 L102,110 L95,110 L94.9990839,58.149718 C97.2029904,59.4596568 99.5461861,60.6605136 101.999618,61.7388852 Z M169.001367,58.1494501 L169,98.5 C169,100.432997 167.432997,102 165.5,102 C163.567003,102 162,100.432997 162,98.5 L162.001384,61.7384448 C164.454619,60.6601132 166.797629,59.4593148 169.001367,58.1494501 Z" id="Straps" fill="#F4F4F4" mask="url(#mask-8)"></path>
                    <path d="M173.041065,12.7245804 C188.091243,15.5714792 198.5,21.2431784 198.5,32.3076923 C198.5,52.0200095 165.462319,68 132,68 C98.5376807,68 65.5,52.0200095 65.5,32.3076923 C65.5,21.2431784 75.908757,15.5714792 90.9589345,12.7245804 C81.8748056,16.0747223 76,21.706273 76,31.0769231 C76,51.4689754 103.821205,68 132,68 C160.178795,68 188,51.4689754 188,31.0769231 C188,21.9004995 182.366206,16.3097803 173.60124,12.9358572 Z" id="Shadow" fill-opacity="0.16" fill="#000000" mask="url(#mask-8)"></path>
                </g>
                <g id="Face" transform="translate(76.000000, 82.000000)">
                    <g id="Group" transform="translate(2.000000, 52.000000)">
                        <mask id="mask-10" fill="white">
                            <use xlink:href="#path-9"></use>
                        </mask>
                        <use id="Mouth" fill-opacity="0.699999988" fill="#000000" xlink:href="#path-9"></use>
                        <path d="M44,2 L65,2 C67.7614237,2 70,4.23857625 70,7 L70,13 C70,15.7614237 67.7614237,18 65,18 L44,18 C41.2385763,18 39,15.7614237 39,13 L39,7 C39,4.23857625 41.2385763,2 44,2 Z" id="Teeth" fill="#FFFFFF" mask="url(#mask-10)"></path>
                        <g id="Tongue" mask="url(#mask-10)" fill="#FF4F6D">
                            <g transform="translate(38.000000, 24.000000)">
                                <circle cx="11" cy="11" r="11"></circle>
                                <circle cx="21" cy="11" r="11"></circle>
                            </g>
                        </g>
                    </g>
                    <g id="Group" transform="translate(28.000000, 40.000000)" fill="#000000" fill-opacity="0.16">
                        <g id="Nose">
                            <path d="M16,8 C16,12.418278 21.372583,16 28,16 L28,16 C34.627417,16 40,12.418278 40,8"></path>
                        </g>
                    </g>
                    <g id="Group" transform="translate(0.000000, 8.000000)" fill="#000000" fill-opacity="0.599999964">
                        <g id="Squint">
                            <path d="M16.1601674,22.4473116 C18.006676,18.648508 22.1644225,16 26.9975803,16 C31.8136766,16 35.9591217,18.629842 37.8153518,22.4071242 C38.3667605,23.5291977 37.5821037,24.4474817 36.790607,23.7670228 C34.3395063,21.6597833 30.8587163,20.3437884 26.9975803,20.3437884 C23.2572061,20.3437884 19.8737584,21.5787519 17.4375392,23.5716412 C16.5467928,24.3002944 15.6201012,23.5583844 16.1601674,22.4473116 Z"></path>
                            <path d="M74.1601674,22.4473116 C76.006676,18.648508 80.1644225,16 84.9975803,16 C89.8136766,16 93.9591217,18.629842 95.8153518,22.4071242 C96.3667605,23.5291977 95.5821037,24.4474817 94.790607,23.7670228 C92.3395063,21.6597833 88.8587163,20.3437884 84.9975803,20.3437884 C81.2572061,20.3437884 77.8737584,21.5787519 75.4375392,23.5716412 C74.5467928,24.3002944 73.6201012,23.5583844 74.1601674,22.4473116 Z"></path>
                        </g>
                    </g>
                    <g id="Group" fill="#000000" fill-opacity="0.599999964">
                        <g id="Eyebrow">
                            <path d="M26.0390934,6.21012364 C20.2775554,6.98346216 11.2929313,12.0052479 12.04426,17.8178111 C12.0689481,18.0080543 12.3567302,18.0673468 12.4809077,17.9084937 C14.9674041,14.7203351 34.1927973,10.0365481 41.1942673,11.0147151 C41.8350523,11.1044465 42.2580662,10.4430343 41.8210501,10.0302067 C38.0765663,6.49485426 31.2003792,5.51224825 26.0390934,6.21012364" transform="translate(27.000000, 12.000000) rotate(5.000000) translate(-27.000000, -12.000000) "></path>
                            <path d="M85.0390934,6.21012364 C79.2775554,6.98346216 70.2929313,12.0052479 71.04426,17.8178111 C71.0689481,18.0080543 71.3567302,18.0673468 71.4809077,17.9084937 C73.9674041,14.7203351 93.1927973,10.0365481 100.194267,11.0147151 C100.835052,11.1044465 101.258066,10.4430343 100.82105,10.0302067 C97.0765663,6.49485426 90.2003792,5.51224825 85.0390934,6.21012364" transform="translate(86.000000, 12.000000) scale(-1, 1) rotate(5.000000) translate(-86.000000, -12.000000) "></path>
                        </g>
                    </g>
                </g>
                <g id="Top">
                    <mask id="mask-12" fill="white">
                        <use xlink:href="#path-11"></use>
                    </mask>
                    <g id="Mask"></g>
                    <g id="Group" mask="url(#mask-12)">
                        <g transform="translate(-1.000000, 0.000000)" id="Top">
                            <g id="Hair" transform="translate(75.000000, 34.000000)">
                                <mask id="mask-14" fill="white">
                                    <use xlink:href="#path-13"></use>
                                </mask>
                                <use id="Caesar" fill="#28354B" xlink:href="#path-13"></use>
                                <g id="Group" mask="url(#mask-14)">
                                    <g transform="translate(-74.000000, -34.000000)" id="â†³-ðŸ’ˆHair-Color">
                                        <rect id="Color" fill="#B58143" x="0" y="0" width="264" height="280"></rect>
                                    </g>
                                </g>
                            </g>
                        </g>
                    </g>
                </g>
            </g>
        </g>
    </g>
</svg>